<svg width="494" height="379" viewBox="0 0 494 379" fill="none" xmlns="http://www.w3.org/2000/svg">
<g clip-path="url(#clip0_83_731)">
<path d="M452.58 162.497C447.714 143.669 440.229 125.727 430.123 109.174C412.408 80.1112 381.093 36.0121 345.537 18.8274C290.643 -7.70785 240.739 -8.97144 195.826 32.7268C150.913 74.4251 123.466 193.202 107.247 213.419C91.0288 233.637 42.3728 237.427 23.659 269.017C4.94518 300.607 10.8089 375.158 10.8089 375.158H477.781C477.781 375.158 484.269 285.696 452.58 162.497Z" fill="#C6FF00"/>
<path opacity="0.8" d="M452.58 162.497C447.714 143.669 440.229 125.727 430.123 109.174C412.408 80.1112 381.093 36.0121 345.537 18.8274C290.643 -7.70785 240.739 -8.97144 195.826 32.7268C150.913 74.4251 123.466 193.202 107.247 213.419C91.0288 233.637 42.3728 237.427 23.659 269.017C4.94518 300.607 10.8089 375.158 10.8089 375.158H477.781C477.781 375.158 484.269 285.696 452.58 162.497Z" fill="white"/>
<path d="M414.154 117.134C408.54 114.102 406.045 116.629 404.049 114.102C402.053 111.574 409.663 104.877 394.442 98.1804C394.442 98.1804 393.444 83.7756 372.734 83.2701C352.024 82.7647 357.514 97.675 352.024 101.213C346.41 104.751 344.913 99.1913 339.424 102.729C333.81 106.267 336.43 113.47 331.813 114.481C327.322 115.492 321.209 109.932 315.595 113.47C309.981 117.008 309.981 120.167 307.485 120.167C304.99 120.167 299.875 118.145 296.881 120.167C293.887 122.189 290.269 124.716 290.269 124.716H418.271C418.147 124.842 419.768 120.293 414.154 117.134Z" fill="white"/>
<path opacity="0.5" d="M414.154 117.134C408.54 114.102 406.045 116.629 404.049 114.102C402.053 111.574 409.663 104.877 394.442 98.1804C394.442 98.1804 393.444 83.7756 372.734 83.2701C352.024 82.7647 357.514 97.675 352.024 101.213C346.41 104.751 344.913 99.1913 339.424 102.729C333.81 106.267 336.43 113.47 331.813 114.481C327.322 115.492 321.209 109.932 315.595 113.47C309.981 117.008 309.981 120.167 307.485 120.167C304.99 120.167 299.875 118.145 296.881 120.167C293.887 122.189 290.269 124.716 290.269 124.716H418.271C418.147 124.842 419.768 120.293 414.154 117.134Z" fill="white"/>
<path d="M261.574 39.0447C258.33 37.2757 256.833 38.792 255.586 37.2757C254.338 35.7594 258.83 31.8423 249.847 27.9252C249.847 27.9252 249.223 19.4592 236.997 19.0801C224.646 18.8274 228.014 27.5461 224.646 29.6942C221.402 31.8423 220.404 28.4306 217.16 30.5787C213.916 32.7268 215.413 36.8966 212.669 37.5284C209.924 38.1602 206.431 34.7486 203.062 36.8966C199.819 39.0447 199.819 40.8138 198.321 40.8138C196.824 40.8138 193.83 39.5502 192.084 40.8138C190.337 42.0773 188.216 43.5936 188.216 43.5936H264.069C263.945 43.5936 264.818 40.8138 261.574 39.0447Z" fill="white"/>
<path opacity="0.5" d="M261.574 39.0447C258.33 37.2757 256.833 38.792 255.586 37.2757C254.338 35.7594 258.83 31.8423 249.847 27.9252C249.847 27.9252 249.223 19.4592 236.997 19.0801C224.646 18.8274 228.014 27.5461 224.646 29.6942C221.402 31.8423 220.404 28.4306 217.16 30.5787C213.916 32.7268 215.413 36.8966 212.669 37.5284C209.924 38.1602 206.431 34.7486 203.062 36.8966C199.819 39.0447 199.819 40.8138 198.321 40.8138C196.824 40.8138 193.83 39.5502 192.084 40.8138C190.337 42.0773 188.216 43.5936 188.216 43.5936H264.069C263.945 43.5936 264.818 40.8138 261.574 39.0447Z" fill="white"/>
<path d="M223.024 169.699C219.78 167.93 218.283 169.447 217.035 167.93C215.788 166.414 220.279 162.497 211.296 158.58C211.296 158.58 210.673 150.114 198.446 149.735C186.095 149.482 189.464 158.201 186.095 160.349C182.851 162.497 181.853 159.085 178.61 161.233C175.366 163.381 176.863 167.551 174.118 168.183C171.374 168.815 167.88 165.403 164.512 167.551C161.268 169.699 161.268 171.468 159.771 171.468C158.274 171.468 155.28 170.205 153.533 171.468C151.786 172.732 149.665 174.248 149.665 174.248H225.519C225.394 174.248 226.392 171.595 223.024 169.699Z" fill="white"/>
<path opacity="0.5" d="M223.024 169.699C219.78 167.93 218.283 169.447 217.035 167.93C215.788 166.414 220.279 162.497 211.296 158.58C211.296 158.58 210.673 150.114 198.446 149.735C186.095 149.482 189.464 158.201 186.095 160.349C182.851 162.497 181.853 159.085 178.61 161.233C175.366 163.381 176.863 167.551 174.118 168.183C171.374 168.815 167.88 165.403 164.512 167.551C161.268 169.699 161.268 171.468 159.771 171.468C158.274 171.468 155.28 170.205 153.533 171.468C151.786 172.732 149.665 174.248 149.665 174.248H225.519C225.394 174.248 226.392 171.595 223.024 169.699Z" fill="white"/>
<path d="M15.5497 374.779L165.385 183.851C169.003 179.302 175.865 179.302 179.358 184.104L272.678 310.336L360.009 165.529C363.502 159.591 372.111 159.843 375.354 165.909L487.388 373.768L15.5497 374.779Z" fill="#C6FF00"/>
<path opacity="0.5" d="M15.5497 374.779L165.385 183.851C169.003 179.302 175.865 179.302 179.358 184.104L272.678 310.336L360.009 165.529C363.502 159.591 372.111 159.843 375.354 165.909L487.388 373.768L15.5497 374.779Z" fill="white"/>
<mask id="mask0_83_731" style="mask-type:luminance" maskUnits="userSpaceOnUse" x="15" y="161" width="473" height="214">
<path d="M15.5497 374.779L165.385 183.851C169.003 179.302 175.865 179.302 179.358 184.104L272.678 310.336L360.009 165.529C363.502 159.591 372.111 159.843 375.354 165.909L487.388 373.768L15.5497 374.779Z" fill="white"/>
</mask>
<g mask="url(#mask0_83_731)">
<g opacity="0.2">
<path d="M175.615 181.198L226.267 374.4L320.959 374.273L179.483 184.104C178.485 182.714 177.112 181.703 175.615 181.198Z" fill="black"/>
<path d="M375.479 166.035C373.608 162.623 370.239 161.107 366.871 161.36L440.728 373.894L487.513 373.768L375.479 166.035Z" fill="black"/>
</g>
</g>
<mask id="mask1_83_731" style="mask-type:luminance" maskUnits="userSpaceOnUse" x="15" y="161" width="473" height="214">
<path d="M15.5497 374.779L165.385 183.851C169.003 179.302 175.865 179.302 179.358 184.104L272.678 310.336L360.009 165.529C363.502 159.591 372.111 159.843 375.354 165.909L487.388 373.768L15.5497 374.779Z" fill="white"/>
</mask>
<g mask="url(#mask1_83_731)">
<path opacity="0.2" d="M109.368 373.642L115.107 340.915L94.2725 373.642H109.368Z" fill="black"/>
</g>
<path d="M376.727 374.273H440.977C439.73 366.313 434.74 367.703 433.991 355.32C433.617 349.128 439.356 341.42 438.857 333.207C438.482 326.51 431.87 319.56 431.371 311.852C430.872 304.903 436.486 297.195 435.987 289.74C435.488 282.664 428.876 275.84 428.252 268.512C427.628 261.309 433.118 253.601 432.494 246.272C431.87 239.07 425.133 232.373 424.385 225.171C423.636 217.842 429.001 209.881 428.127 202.932C427.254 195.476 420.267 189.032 419.394 182.082C418.396 174.375 423.262 166.288 422.139 159.591C420.767 151.504 413.281 145.565 411.659 139.626C408.79 128.506 409.164 117.766 405.671 117.008C401.928 116.25 401.179 126.737 398.31 138.489C396.938 144.428 389.577 150.366 388.454 158.453C387.456 165.024 392.571 172.985 391.822 180.566C391.074 187.389 384.337 193.96 383.588 201.415C382.965 208.365 388.454 216.073 387.955 223.402C387.456 230.478 380.844 237.301 380.345 244.503C379.846 251.706 385.585 259.287 385.21 266.363C384.836 273.692 378.349 280.516 377.974 287.592C377.6 295.047 383.464 302.502 383.089 309.452C382.84 317.033 376.352 324.109 376.228 330.806C375.978 338.893 381.842 346.348 381.592 352.54C381.218 365.934 375.105 363.154 374.98 373.894L376.727 374.273Z" fill="#BAEF00"/>
<path d="M404.298 138.741V371.241" stroke="#263238" stroke-miterlimit="10"/>
<path d="M414.279 163.129L403.799 172.226L395.316 160.728" fill="#BAEF00"/>
<path d="M414.279 163.129L403.799 172.226L395.316 160.728" stroke="#263238" stroke-miterlimit="10"/>
<path d="M414.279 203.563L403.799 212.661L395.316 201.163" fill="#BAEF00"/>
<path d="M414.279 203.563L403.799 212.661L395.316 201.163" stroke="#263238" stroke-miterlimit="10"/>
<path d="M414.279 241.597L403.799 250.821L395.316 239.196" fill="#BAEF00"/>
<path d="M414.279 241.597L403.799 250.821L395.316 239.196" stroke="#263238" stroke-miterlimit="10"/>
<path d="M414.279 286.96L403.799 296.058L395.316 284.559" fill="#BAEF00"/>
<path d="M414.279 286.96L403.799 296.058L395.316 284.559" stroke="#263238" stroke-miterlimit="10"/>
<path d="M414.279 332.702L403.799 341.799L395.316 330.301" fill="#BAEF00"/>
<path d="M414.279 332.702L403.799 341.799L395.316 330.301" stroke="#263238" stroke-miterlimit="10"/>
<path d="M309.107 374.273H364.875C363.752 367.324 359.385 368.587 358.886 357.847C358.637 352.413 363.502 345.843 363.128 338.767C362.754 332.954 357.14 327.015 356.64 320.318C356.266 314.253 361.132 307.556 360.633 301.112C360.134 294.92 354.395 289.108 353.896 282.664C353.397 276.472 358.138 269.649 357.639 263.457C357.139 257.139 351.276 251.327 350.652 245.135C350.028 238.817 354.644 231.868 353.896 225.802C353.147 219.358 347.159 213.798 346.285 207.733C345.412 201.036 349.654 193.96 348.656 188.274C347.408 181.198 340.921 176.144 339.673 170.963C337.178 161.36 337.428 152.009 334.433 151.377C331.19 150.746 330.566 159.843 328.071 170.078C326.823 175.259 320.585 180.44 319.462 187.389C318.589 193.076 323.08 200.025 322.332 206.596C321.708 212.535 315.844 218.221 315.221 224.665C314.721 230.73 319.462 237.427 318.963 243.745C318.464 249.937 312.85 255.749 312.351 262.067C311.977 268.259 316.842 274.829 316.593 281.021C316.219 287.339 310.604 293.278 310.355 299.469C310.105 305.914 315.096 312.358 314.846 318.423C314.597 324.994 309.107 331.059 308.858 336.871C308.608 343.947 313.723 350.392 313.599 355.699C313.224 367.324 307.985 364.923 307.86 374.273H309.107Z" fill="#BAEF00"/>
<path d="M332.936 169.952V371.62" stroke="#263238" stroke-miterlimit="10"/>
<path d="M341.669 191.18L332.562 199.014L325.201 189.032" fill="#BAEF00"/>
<path d="M341.669 191.18L332.562 199.014L325.201 189.032" stroke="#263238" stroke-miterlimit="10"/>
<path d="M341.669 226.181L332.562 234.142L325.201 224.16" fill="#BAEF00"/>
<path d="M341.669 226.181L332.562 234.142L325.201 224.16" stroke="#263238" stroke-miterlimit="10"/>
<path d="M341.669 259.287L332.562 267.248L325.201 257.139" fill="#BAEF00"/>
<path d="M341.669 259.287L332.562 267.248L325.201 257.139" stroke="#263238" stroke-miterlimit="10"/>
<path d="M341.669 298.585L332.562 306.419L325.201 296.437" fill="#BAEF00"/>
<path d="M341.669 298.585L332.562 306.419L325.201 296.437" stroke="#263238" stroke-miterlimit="10"/>
<path d="M341.669 338.261L332.562 346.222L325.201 336.113" fill="#BAEF00"/>
<path d="M341.669 338.261L332.562 346.222L325.201 336.113" stroke="#263238" stroke-miterlimit="10"/>
<path d="M32.3921 374.273H88.1594C87.0365 367.324 82.67 368.587 82.1709 357.847C81.9214 352.413 86.787 345.843 86.4127 338.767C86.0385 332.954 80.4243 327.015 79.9253 320.318C79.551 314.253 84.4166 307.556 83.9175 301.112C83.4185 294.92 77.6796 289.108 77.1806 282.664C76.6815 276.472 81.4224 269.649 80.9233 263.457C80.4243 257.139 74.5606 251.327 73.9368 245.135C73.313 238.817 77.9291 231.868 77.1806 225.802C76.432 219.358 70.4436 213.798 69.5703 207.733C68.697 201.036 72.9388 193.96 71.9407 188.274C70.6931 181.198 64.2057 176.144 62.9581 170.963C60.4629 161.36 60.7124 152.009 57.7182 151.377C54.4745 150.746 53.8507 159.843 51.3555 170.078C50.1079 175.259 43.87 180.44 42.7471 187.389C41.8738 193.076 46.3651 200.025 45.6166 206.596C44.9928 212.535 39.1291 218.221 38.5053 224.665C38.0063 230.73 42.7471 237.427 42.2481 243.745C41.749 249.937 36.1349 255.749 35.6359 262.067C35.2616 268.259 40.1272 274.829 39.8777 281.021C39.5034 287.339 33.8892 293.278 33.6397 299.469C33.3902 305.914 38.3806 312.358 38.131 318.423C37.8815 324.994 32.3921 331.059 32.1426 336.871C31.8931 343.947 37.0082 350.392 36.8835 355.699C36.5092 367.324 31.2693 364.923 31.1445 374.273H32.3921Z" fill="#BAEF00"/>
<path d="M56.3458 169.952V371.62" stroke="#263238" stroke-miterlimit="10"/>
<path d="M65.079 191.18L55.9716 199.014L48.486 189.032" stroke="#263238" stroke-miterlimit="10"/>
<path d="M65.079 226.181L55.9716 234.142L48.486 224.16" stroke="#263238" stroke-miterlimit="10"/>
<path d="M65.079 259.287L55.9716 267.248L48.486 257.139" stroke="#263238" stroke-miterlimit="10"/>
<path d="M65.079 298.585L55.9716 306.419L48.486 296.437" stroke="#263238" stroke-miterlimit="10"/>
<path d="M65.079 338.261L55.9716 346.222L48.486 336.113" stroke="#263238" stroke-miterlimit="10"/>
<path d="M333.649 373.898C359.422 367.842 375.468 341.771 369.488 315.667C363.509 289.564 337.768 273.312 311.995 279.368C286.221 285.425 270.175 311.495 276.155 337.599C282.135 363.703 307.875 379.954 333.649 373.898Z" fill="#263238"/>
<path d="M338.777 366.59C360.56 357.67 371.079 332.555 362.273 310.493C353.467 288.431 328.669 277.776 306.887 286.695C285.104 295.614 274.584 320.73 283.39 342.792C292.196 364.854 316.994 375.509 338.777 366.59Z" fill="white"/>
<path d="M322.831 364.165C338.051 364.165 351.026 354.941 356.765 341.673" stroke="#263238" stroke-miterlimit="10" stroke-linecap="round" stroke-linejoin="round"/>
<path d="M322.831 288.982C308.858 288.982 296.756 296.689 290.393 308.188" stroke="#263238" stroke-miterlimit="10" stroke-linecap="round" stroke-linejoin="round"/>
<path d="M322.831 292.772C310.23 292.772 299.376 299.722 293.637 310.083" stroke="#263238" stroke-miterlimit="10" stroke-linecap="round" stroke-linejoin="round"/>
<path d="M322.207 360.374C322.457 360.374 322.581 360.374 322.831 360.374C336.554 360.374 348.282 352.034 353.521 340.03" stroke="#263238" stroke-miterlimit="10" stroke-linecap="round" stroke-linejoin="round"/>
<path d="M322.831 296.942C311.852 296.942 302.246 303.134 297.255 312.231" stroke="#263238" stroke-miterlimit="10" stroke-linecap="round" stroke-linejoin="round"/>
<path d="M322.831 356.204C334.683 356.204 345.038 349.002 349.529 338.64" stroke="#263238" stroke-miterlimit="10" stroke-linecap="round" stroke-linejoin="round"/>
<path d="M322.831 301.617C313.599 301.617 305.489 306.798 301.248 314.38" stroke="#263238" stroke-miterlimit="10" stroke-linecap="round" stroke-linejoin="round"/>
<path d="M322.831 351.655C332.687 351.655 341.17 345.843 345.163 337.25" stroke="#263238" stroke-miterlimit="10" stroke-linecap="round" stroke-linejoin="round"/>
<path d="M204.899 360.952C223.608 342.003 223.608 311.281 204.899 292.333C186.191 273.384 155.858 273.384 137.149 292.333C118.44 311.281 118.44 342.003 137.149 360.952C155.858 379.9 186.191 379.9 204.899 360.952Z" fill="#263238"/>
<path d="M210.21 343.483C219.393 321.578 209.303 296.281 187.675 286.982C166.048 277.682 141.071 287.9 131.889 309.805C122.707 331.711 132.796 357.007 154.424 366.307C176.052 375.607 201.028 365.388 210.21 343.483Z" fill="white"/>
<path d="M170.999 364.165C186.22 364.165 199.195 354.941 204.934 341.673" stroke="#263238" stroke-miterlimit="10" stroke-linecap="round" stroke-linejoin="round"/>
<path d="M170.999 288.982C157.026 288.982 144.925 296.689 138.562 308.188" stroke="#263238" stroke-miterlimit="10" stroke-linecap="round" stroke-linejoin="round"/>
<path d="M170.999 292.772C158.399 292.772 147.545 299.722 141.806 310.083" stroke="#263238" stroke-miterlimit="10" stroke-linecap="round" stroke-linejoin="round"/>
<path d="M170.375 360.374C170.625 360.374 170.75 360.374 170.999 360.374C184.723 360.374 196.45 352.034 201.69 340.03" stroke="#263238" stroke-miterlimit="10" stroke-linecap="round" stroke-linejoin="round"/>
<path d="M170.999 296.942C160.02 296.942 150.414 303.134 145.424 312.231" stroke="#263238" stroke-miterlimit="10" stroke-linecap="round" stroke-linejoin="round"/>
<path d="M170.999 356.204C182.851 356.204 193.206 349.002 197.698 338.64" stroke="#263238" stroke-miterlimit="10" stroke-linecap="round" stroke-linejoin="round"/>
<path d="M170.999 301.617C161.767 301.617 153.658 306.798 149.416 314.38" stroke="#263238" stroke-miterlimit="10" stroke-linecap="round" stroke-linejoin="round"/>
<path d="M170.999 351.655C180.855 351.655 189.339 345.843 193.331 337.25" stroke="#263238" stroke-miterlimit="10" stroke-linecap="round" stroke-linejoin="round"/>
<path d="M284.28 166.414L278.541 140.51C278.541 140.51 271.68 137.983 266.19 141.016C261.699 143.543 245.855 165.909 240.49 173.616C240.24 173.364 240.116 173.237 240.116 173.237C240.116 173.237 239.492 172.226 238.743 173.237C238.743 173.237 235.001 176.649 235.125 177.786C235.125 178.039 235.749 178.797 236.498 179.808L205.682 211.398C205.682 211.398 197.323 211.524 195.826 212.282C194.329 213.04 194.329 213.167 194.329 216.073C194.329 218.853 194.703 221.506 195.202 221.633C195.702 221.759 199.07 222.517 199.444 221.506C199.819 220.369 198.571 218.347 198.571 218.347C198.571 218.347 199.444 215.946 201.316 216.705C203.187 217.463 204.684 219.864 207.055 218.979C209.425 218.095 211.546 214.051 211.546 214.051L244.857 189.032C245.855 190.043 246.603 190.801 246.853 190.927C248.1 191.686 252.217 188.527 252.093 187.01V186.884L284.28 166.414Z" fill="#263238"/>
<path d="M204.809 234.016C204.185 234.016 203.686 233.763 203.437 233.131L195.702 219.358C195.202 218.6 195.577 217.589 196.325 217.084C197.074 216.578 198.072 216.957 198.571 217.715L206.306 231.489C206.805 232.247 206.431 233.258 205.682 233.763C205.308 233.889 205.058 234.016 204.809 234.016Z" fill="white" stroke="#263238" stroke-miterlimit="10" stroke-linecap="round" stroke-linejoin="round"/>
<path d="M233.004 178.292L201.066 211.145C201.066 211.145 192.707 211.271 191.21 212.029C189.713 212.787 189.713 212.914 189.713 215.82C189.713 218.6 190.087 221.253 190.586 221.38C191.085 221.506 194.454 222.264 194.828 221.253C195.202 220.116 193.955 218.095 193.955 218.095C193.955 218.095 194.828 215.694 196.7 216.452C198.571 217.21 200.068 219.611 202.438 218.726C204.809 217.842 206.93 213.798 206.93 213.798L241.613 187.769L233.004 178.292Z" fill="white" stroke="#263238" stroke-miterlimit="10" stroke-linecap="round" stroke-linejoin="round"/>
<path d="M200.941 218.221C200.941 216.073 199.195 214.304 197.074 214.304C194.953 214.304 193.206 216.073 193.206 218.221C193.206 220.369 194.953 222.138 197.074 222.138C199.195 222.012 200.941 220.369 200.941 218.221Z" fill="#263238"/>
<path d="M301.372 221.759C301.372 221.759 296.382 224.286 290.394 224.791C284.405 225.297 280.288 224.539 281.66 228.961C283.033 233.384 292.39 234.268 299.251 232.626C306.113 230.983 309.357 228.456 308.608 224.033C307.61 219.484 303.493 220.874 301.372 221.759Z" fill="#263238"/>
<path d="M279.664 212.029C279.664 212.029 237.371 243.745 236.248 250.442C235.125 257.139 242.86 307.683 242.86 307.683L249.473 309.957C249.473 309.957 253.091 264.847 256.584 256.255C260.202 247.662 295.633 227.319 296.382 217.084C297.255 206.722 288.397 206.722 279.664 212.029Z" fill="#263238"/>
<path d="M242.86 307.683C242.86 307.683 240.116 308.567 236.498 308.82C232.88 309.073 228.014 307.177 228.014 308.567C228.014 309.957 234.002 315.264 237.121 315.517C240.116 315.77 243.983 316.022 243.983 316.022L244.108 318.17L248.1 319.308L249.473 309.831L242.86 307.683Z" fill="#263238"/>
<path d="M244.129 318.207L231.106 311.529L229.246 315.25L242.269 321.928L244.129 318.207Z" fill="white" stroke="#263238" stroke-miterlimit="10" stroke-linecap="round" stroke-linejoin="round"/>
<path d="M236.622 316.654L253.34 328.279L254.962 324.236L237.121 315.517L236.622 316.654Z" fill="white" stroke="#263238" stroke-miterlimit="10" stroke-linecap="round" stroke-linejoin="round"/>
<path d="M323.704 323.856L290.269 238.691C290.144 238.438 290.019 238.312 289.894 238.059L291.641 233.384C292.015 232.499 291.516 231.615 290.643 231.236C289.77 230.857 288.896 231.362 288.522 232.247L284.655 242.608H204.185C205.682 236.669 206.306 233.005 206.431 232.878C206.556 231.994 206.056 231.109 205.183 230.857C204.31 230.73 203.437 231.236 203.187 232.12C203.062 232.626 191.709 288.855 169.627 325.878C169.128 326.636 169.377 327.647 170.126 328.153C170.375 328.279 170.625 328.405 170.999 328.405C171.498 328.405 172.122 328.153 172.372 327.647C184.099 307.935 192.832 283.043 198.446 263.71L253.091 329.164C253.215 329.416 253.34 329.669 253.465 329.922C254.089 330.806 255.087 331.312 256.085 331.312H256.21L320.71 328.532C321.708 328.532 322.706 327.9 323.33 327.015C324.078 326.005 324.078 324.867 323.704 323.856ZM203.312 245.767H283.407L253.964 324.741L199.694 259.666C201.191 254.486 202.314 249.81 203.312 245.767ZM256.21 327.9L288.148 242.482L320.585 325.12L256.21 327.9Z" fill="white" stroke="#263238" stroke-miterlimit="10" stroke-linecap="round" stroke-linejoin="round"/>
<path d="M208.552 232.373C208.552 230.225 206.805 228.456 204.684 228.456C202.563 228.456 200.817 230.225 200.817 232.373C200.817 234.521 202.563 236.29 204.684 236.29C206.93 236.164 208.552 234.521 208.552 232.373Z" fill="white" stroke="#263238" stroke-miterlimit="10" stroke-linecap="round" stroke-linejoin="round"/>
<path d="M176.489 326.636C176.489 323.604 174.118 321.077 170.999 321.077C167.88 321.077 165.51 323.477 165.51 326.636C165.51 329.669 167.88 332.196 170.999 332.196C174.118 332.196 176.489 329.669 176.489 326.636Z" fill="#263238"/>
<path d="M327.572 326.636C327.572 323.604 325.201 321.077 322.082 321.077C319.088 321.077 316.593 323.477 316.593 326.636C316.593 329.669 318.963 332.196 322.082 332.196C325.201 332.07 327.572 329.669 327.572 326.636Z" fill="#263238"/>
<path d="M266.44 326.636C266.44 320.318 261.449 315.264 255.211 315.264C248.974 315.264 243.983 320.318 243.983 326.636C243.983 332.954 248.974 338.009 255.211 338.009C261.449 338.009 266.44 332.828 266.44 326.636Z" fill="#263238"/>
<path d="M272.303 328.784L254.962 324.109C253.59 323.73 252.217 324.615 251.843 325.878C251.469 327.394 252.467 328.911 253.964 329.037L273.426 331.691L272.303 328.784Z" fill="white" stroke="#263238" stroke-miterlimit="10" stroke-linecap="round" stroke-linejoin="round"/>
<path d="M279.654 321.818L269.836 332.758L272.883 335.563L282.7 324.622L279.654 321.818Z" fill="white" stroke="#263238" stroke-miterlimit="10" stroke-linecap="round" stroke-linejoin="round"/>
<path d="M279.415 210.892C279.415 210.892 246.229 241.976 244.607 250.569C242.985 259.161 276.67 314.885 276.67 314.885L283.282 312.611C283.282 312.611 264.319 263.71 266.814 260.046C269.309 256.381 313.599 226.055 320.211 215.82C326.823 205.585 323.08 195.224 318.09 190.548C313.1 185.873 279.415 210.892 279.415 210.892Z" fill="#263238"/>
<path d="M257.457 250.569L266.689 260.046L262.073 248.547" stroke="white" stroke-width="0.75" stroke-miterlimit="10" stroke-linecap="round" stroke-linejoin="round"/>
<path d="M250.97 269.27C250.97 269.27 244.233 252.59 246.229 247.41C248.225 242.229 281.286 216.957 281.286 216.957C281.286 216.957 297.754 211.271 308.983 213.546" stroke="white" stroke-width="0.75" stroke-miterlimit="10" stroke-linecap="round" stroke-linejoin="round"/>
<path d="M299.875 210.513C299.875 210.513 305.614 207.733 314.098 210.892" stroke="white" stroke-width="0.75" stroke-miterlimit="10" stroke-linecap="round" stroke-linejoin="round"/>
<path d="M276.67 314.885C276.67 314.885 273.676 318.17 270.682 321.329C267.687 324.362 263.82 325.246 265.192 326.005C266.565 326.889 268.81 327.647 272.927 326.257C277.044 324.867 282.284 320.192 282.284 320.192L283.157 321.582L287.774 319.055L283.407 312.611L276.67 314.885Z" fill="#263238"/>
<path d="M259.828 100.202C255.711 95.7796 248.35 93.1261 242.361 94.137C236.498 95.2742 234.876 103.235 233.753 108.163L232.755 112.585L232.88 115.997L231.008 123.199C230.759 124.084 231.383 125.095 232.381 125.221L234.502 125.474C234.876 127.875 237.246 132.55 237.496 134.193C238.743 140.51 242.86 140.131 245.48 139.121C246.603 138.741 248.475 137.478 250.221 135.962L256.459 141.269L267.563 129.012L262.822 122.062C262.822 122.062 264.194 104.877 259.828 100.202Z" fill="white" stroke="#263238" stroke-miterlimit="10" stroke-linecap="round" stroke-linejoin="round"/>
<path d="M237.121 117.766C237.246 118.777 237.121 119.661 236.747 119.661C236.373 119.788 235.874 119.03 235.749 118.019C235.624 117.008 235.749 116.123 236.123 116.123C236.498 115.997 236.997 116.755 237.121 117.766Z" fill="#263238"/>
<path d="M234.127 113.849C234.127 113.849 236.747 111.574 238.743 114.481" stroke="#263238" stroke-miterlimit="10" stroke-linecap="round" stroke-linejoin="round"/>
<path d="M243.484 106.773C243.484 106.773 240.116 110.816 241.363 112.206C242.611 113.723 246.728 117.008 246.728 117.008C246.728 117.008 249.597 111.701 253.839 113.849C257.956 115.997 254.712 121.051 256.085 123.073C257.582 125.221 262.572 122.062 262.947 120.925C263.321 119.914 270.806 104.498 271.305 98.8122C271.68 93.1261 256.334 87.44 249.722 86.1764C243.11 84.9128 238.12 87.8191 239.367 86.5555C240.615 85.2919 242.736 81.8802 238.743 81.5012C234.751 81.1221 229.636 87.1873 229.636 90.7253C229.636 94.2633 233.129 94.5161 233.129 94.5161C233.129 94.5161 223.148 91.9889 225.893 97.9277C228.638 103.867 233.129 103.614 237.371 103.867C241.363 104.246 243.484 106.773 243.484 106.773Z" fill="#263238"/>
<path d="M251.094 114.607H250.97C250.346 114.481 249.847 113.849 249.847 113.217L251.344 100.202C251.469 99.5704 251.968 99.0649 252.716 99.0649C253.34 99.1913 253.839 99.8231 253.839 100.455L252.342 113.47C252.342 114.102 251.718 114.607 251.094 114.607Z" fill="white" stroke="#263238" stroke-miterlimit="10"/>
<path d="M250.595 126.864C247.476 126.864 244.857 124.21 244.857 121.051V115.618C244.857 112.459 247.476 109.805 250.595 109.805C253.714 109.805 256.334 112.459 256.334 115.618V121.051C256.334 124.21 253.714 126.864 250.595 126.864Z" fill="white" stroke="#263238" stroke-miterlimit="10"/>
<path d="M251.968 87.3136L250.096 100.708C249.847 102.098 250.845 103.487 252.342 103.614H252.467C253.839 103.74 255.087 102.729 255.336 101.339L256.958 87.8191C257.083 86.4291 256.21 85.1655 254.712 84.9128C253.465 85.0392 252.217 85.9237 251.968 87.3136Z" fill="white" stroke="#263238" stroke-miterlimit="10"/>
<path d="M269.184 124.084C269.184 124.084 249.223 142.406 249.473 145.438C249.722 148.471 249.098 162.118 256.584 177.407C263.945 192.696 272.927 205.585 276.171 211.398C279.415 217.21 289.021 212.914 289.021 212.914C289.021 212.914 309.232 205.711 315.844 199.393C322.457 192.949 315.844 181.324 315.844 181.324C315.844 181.324 291.516 146.07 283.532 137.352C275.547 128.759 269.184 124.084 269.184 124.084Z" fill="#BAEF00" stroke="#263238" stroke-miterlimit="10" stroke-linecap="round" stroke-linejoin="round"/>
<path d="M249.098 148.092C249.098 148.092 253.215 144.428 256.459 141.395C259.703 138.362 276.421 134.951 280.538 135.835C284.655 136.72 285.777 140.51 286.526 140.258C287.399 140.005 287.774 134.572 283.407 127.243C279.04 119.914 272.428 116.755 268.81 119.03C265.317 121.304 256.584 132.55 252.841 137.099C249.098 141.774 247.601 144.428 249.098 148.092Z" fill="#BAEF00" stroke="#263238" stroke-miterlimit="10" stroke-linecap="round" stroke-linejoin="round"/>
<path d="M267.438 172.226C267.438 172.226 280.787 173.364 290.144 171.468" stroke="#263238" stroke-miterlimit="10" stroke-linecap="round" stroke-linejoin="round"/>
<path d="M262.198 173.364C262.198 173.364 274.799 181.324 287.898 182.082" stroke="#263238" stroke-miterlimit="10" stroke-linecap="round" stroke-linejoin="round"/>
<path d="M273.925 140.005C273.925 140.005 267.064 137.478 261.574 140.51C256.085 143.543 234.002 175.764 234.002 175.764L245.231 187.895L279.664 165.782" fill="#BAEF00"/>
<path d="M273.925 140.005C273.925 140.005 267.064 137.478 261.574 140.51C256.085 143.543 234.002 175.764 234.002 175.764L245.231 187.895L279.664 165.782" stroke="#263238" stroke-miterlimit="10" stroke-linecap="round" stroke-linejoin="round"/>
<path d="M234.002 172.858C234.002 172.858 230.26 176.27 230.384 177.407C230.509 178.544 240.989 189.917 242.237 190.675C243.484 191.433 247.601 188.274 247.476 186.758C247.352 185.241 235.375 172.985 235.375 172.985C235.375 172.985 234.751 171.847 234.002 172.858Z" fill="#C6FF00" stroke="#263238" stroke-miterlimit="10" stroke-linecap="round" stroke-linejoin="round"/>
<path d="M2.94904 378.317H491.255C492.752 378.317 493.875 377.053 493.875 375.663C493.875 374.147 492.752 373.01 491.255 373.01H2.94904C1.45193 373.01 0.329102 374.273 0.329102 375.663C0.329102 377.18 1.45193 378.317 2.94904 378.317Z" fill="#263238"/>
</g>
<defs>
<clipPath id="clip0_83_731">
<rect width="493.671" height="378.317" fill="white" transform="translate(0.329102)"/>
</clipPath>
</defs>
</svg>
